<?xml version="1.0" standalone="no"?>
<!DOCTYPE svg PUBLIC "-//W3C//DTD SVG 20010904//EN"
 "http://www.w3.org/TR/2001/REC-SVG-20010904/DTD/svg10.dtd">
<svg version="1.0" xmlns="http://www.w3.org/2000/svg"
 width="498.000000pt" height="442.000000pt" viewBox="0 0 498.000000 442.000000"
 preserveAspectRatio="xMidYMid meet">

<g transform="translate(0.000000,442.000000) scale(0.100000,-0.100000)"
fill="#000000" stroke="black" stroke-width="27">
<path d="M4480 4234 c-85 -7 -285 -22 -445 -34 -159 -11 -407 -29 -550 -40
-143 -11 -384 -29 -535 -40 -151 -11 -394 -29 -540 -40 -146 -11 -389 -29
-540 -40 -151 -11 -392 -29 -535 -40 -143 -10 -393 -29 -555 -40 -412 -29
-378 -22 -384 -73 -7 -48 -316 -3457 -316 -3479 0 -13 456 -328 485 -336 6 -1
255 67 554 153 298 85 549 155 556 155 8 0 17 5 20 11 4 6 -28 222 -71 479
-43 258 -75 472 -72 475 5 5 2369 304 2503 317 l40 4 3 332 2 332 -322 161
-323 162 -245 -17 c-135 -9 -380 -25 -545 -36 -165 -11 -430 -29 -590 -40
-159 -11 -404 -27 -543 -36 -139 -9 -254 -15 -257 -12 -3 2 19 65 48 139 l53
134 1523 5 1522 5 160 398 159 398 0 330 0 329 -52 -1 c-29 -1 -123 -8 -208
-15z m220 -21 c-1 -5 -67 -141 -149 -303 l-148 -295 -1834 -3 -1834 -2 -149
149 -148 149 58 6 c33 3 187 15 344 26 157 12 404 30 550 40 146 11 357 27
470 35 113 8 293 22 400 30 107 8 321 24 475 35 154 12 397 30 540 40 143 11
386 29 540 40 154 12 381 29 505 39 249 20 380 25 380 14z m15 -590 c-3 -10
-41 -13 -145 -13 l-140 0 142 283 143 282 3 -270 c1 -148 0 -275 -3 -282z
m-4000 -108 c-3 -44 -14 -280 -25 -525 -22 -500 -51 -1128 -80 -1760 -10 -234
-22 -498 -26 -587 -4 -90 -10 -163 -13 -163 -4 0 -99 -13 -211 -30 -267 -39
-250 -40 -250 13 0 24 9 136 19 248 11 112 29 308 41 434 11 127 29 325 40
440 11 116 28 314 40 440 11 127 30 329 41 450 11 121 29 319 40 440 11 121
28 317 39 435 11 118 24 267 30 330 6 63 13 137 16 164 l6 49 149 -149 149
-150 -5 -79z m3667 58 c-17 -40 -134 -269 -140 -275 -7 -6 -171 -15 -1029 -58
-222 -11 -583 -29 -803 -40 -666 -33 -1200 -60 -1285 -64 l-80 -3 -3 -572 c-2
-570 -2 -571 18 -571 12 0 80 7 153 15 73 8 222 24 332 35 110 12 281 30 380
40 99 10 270 28 380 40 110 12 281 30 380 40 99 10 270 28 380 40 110 12 281
30 379 41 98 10 180 18 181 17 2 -2 30 -58 64 -125 l60 -121 -37 -6 c-20 -4
-115 -15 -209 -26 -95 -11 -251 -29 -345 -40 -95 -11 -248 -29 -340 -40 -93
-11 -244 -29 -338 -40 -93 -11 -246 -29 -340 -40 -93 -11 -246 -29 -340 -40
-93 -11 -248 -29 -342 -40 -95 -11 -226 -27 -291 -35 -65 -7 -121 -16 -124
-19 -3 -2 29 -245 71 -538 42 -293 76 -543 76 -554 0 -14 -8 -24 -22 -27 -54
-13 -558 -80 -563 -75 -3 2 2 146 10 319 8 173 24 517 35 764 11 248 29 648
40 890 11 242 27 581 35 752 8 172 15 326 15 343 l0 30 1825 0 c1734 0 1824
-1 1817 -17z m325 2 c-69 -179 -292 -725 -296 -725 -8 0 -141 400 -141 423 0
9 34 85 75 167 l75 150 146 0 c124 0 145 -2 141 -15z m-390 -530 c40 -121 73
-223 73 -227 0 -5 -678 -8 -1507 -8 l-1506 0 -149 147 c-81 81 -147 148 -145
149 2 3 339 21 1002 54 972 48 1259 63 1675 85 245 12 454 22 464 21 16 -1 32
-40 93 -221z m-3105 -102 c76 -76 138 -142 138 -148 0 -5 -25 -74 -56 -152
l-56 -142 -82 -3 c-44 -2 -84 -2 -88 0 -10 4 -10 582 -1 582 4 0 70 -62 145
-137z m2314 -484 c47 -94 84 -173 82 -175 -2 -2 -71 -10 -153 -19 -510 -53
-816 -85 -855 -90 -25 -2 -196 -20 -380 -40 -184 -19 -355 -37 -380 -40 -321
-36 -721 -75 -741 -73 l-26 3 88 220 c49 121 90 224 91 228 3 8 32 11 573 47
165 10 435 28 600 39 165 12 437 30 605 41 364 24 393 26 402 28 5 1 46 -75
94 -169z m496 -130 c-7 -6 -304 -39 -354 -39 -26 0 -34 12 -108 160 l-80 160
275 -137 c151 -76 271 -140 267 -144z m-2795 144 c-3 -5 -37 -88 -75 -185 -39
-98 -76 -186 -81 -195 -7 -13 -10 40 -11 179 l0 197 53 4 c103 7 118 7 114 0z
m2853 -463 c0 -159 -3 -290 -8 -290 -4 0 -71 64 -149 143 -138 138 -143 145
-203 266 -34 68 -59 126 -56 128 8 8 289 40 359 42 l57 1 0 -290z m-156 -179
l139 -139 -34 -6 c-58 -11 -2439 -307 -2473 -308 -45 -1 -481 288 -445 296 13
3 87 13 164 21 199 22 376 43 560 65 168 21 801 95 1185 139 47 5 144 17 215
26 375 46 521 61 535 54 8 -4 78 -71 154 -148z m-2622 -332 c113 -76 209 -143
213 -148 9 -15 159 -920 153 -926 -5 -5 -428 133 -440 144 -8 7 -16 57 -98
636 -12 83 -30 207 -41 276 -23 149 -24 173 -6 163 6 -4 105 -70 219 -145z
m135 -1027 c112 -37 199 -69 195 -73 -9 -8 -1042 -302 -1046 -298 -5 7 12 350
17 356 10 9 591 91 612 86 11 -2 111 -34 222 -71z m-871 -184 c-3 -94 -8 -174
-11 -176 -2 -3 -100 59 -217 137 -117 77 -210 142 -208 142 4 1 276 43 434 68
5 0 6 -70 2 -171z"/>
</g>
</svg>
